<?xml version="1.0" encoding="iso-8859-1"?>
<!-- Generator: Adobe Illustrator 19.0.0, SVG Export Plug-In . SVG Version: 6.00 Build 0)  -->
<svg version="1.1" id="Layer_1" xmlns="http://www.w3.org/2000/svg" xmlns:xlink="http://www.w3.org/1999/xlink" x="0px" y="0px"
	 viewBox="0 0 512.002 512.002" style="enable-background:new 0 0 512.002 512.002;" xml:space="preserve">
<g>
	<path style="fill:#F9AD32;" d="M94.953,256.002c0-88.945,72.101-161.049,161.048-161.049c88.944,0,161.045,72.103,161.045,161.049
		c0,88.943-72.101,161.047-161.045,161.047C167.054,417.049,94.953,344.945,94.953,256.002L94.953,256.002z M256.001,10
		c-135.863,0-246,110.141-246,246.002c0,135.863,110.137,246,246,246c135.861,0,245.998-110.137,245.998-246
		C501.999,120.141,391.862,10,256.001,10z"/>
	<path style="fill:#FCE577;" d="M256.001,94.953c-88.947,0-161.048,72.103-161.048,161.049c0,88.943,72.101,161.047,161.048,161.047
		c88.944,0,161.045-72.103,161.045-161.047C417.046,167.057,344.945,94.953,256.001,94.953L256.001,94.953z M209.954,256.002
		c0-25.432,20.615-46.045,46.047-46.045c25.43,0,46.045,20.613,46.045,46.045c0,25.43-20.615,46.049-46.045,46.049
		C230.569,302.051,209.954,281.432,209.954,256.002z"/>
	<circle style="fill:#F9AD32;" cx="256" cy="256" r="46.05"/>
</g>
<g>
	<path style="fill:#000001;" d="M256.001,0c-141.159,0-256,114.842-256,256.002c0,141.158,114.841,256,256,256
		c141.158,0,256-114.842,256-256C512.001,114.842,397.159,0,256.001,0z M256.001,492.002c-130.131,0-236-105.869-236-236
		C20.001,125.869,125.87,20,256.001,20s236,105.869,236,236.002C492.001,386.133,386.132,492.002,256.001,492.002z"/>
	<path style="fill:#000001;" d="M180.243,74.439c1.223,0,2.467-0.227,3.674-0.705C206.965,64.621,231.218,60,256.001,60
		c5.522,0,10-4.479,10-10c0-5.523-4.478-10-10-10c-27.313,0-54.039,5.092-79.438,15.137c-5.136,2.031-7.653,7.842-5.622,12.976
		C172.494,72.043,176.259,74.439,180.243,74.439z"/>
	<path style="fill:#000001;" d="M256.001,84.953c-94.314,0-171.045,76.732-171.045,171.049c0,94.315,76.73,171.047,171.045,171.047
		s171.047-76.732,171.047-171.047C427.048,161.686,350.316,84.953,256.001,84.953z M256.001,407.049
		c-83.287,0-151.045-67.76-151.045-151.047c0-83.289,67.758-151.049,151.045-151.049s151.047,67.76,151.047,151.049
		C407.048,339.289,339.288,407.049,256.001,407.049z"/>
	<path style="fill:#000001;" d="M334.31,334.734c-20.947,20.84-48.758,32.316-78.309,32.316c-5.523,0-10,4.477-10,10
		c0,5.522,4.477,10,10,10c34.873,0,67.693-13.545,92.414-38.137c3.916-3.895,3.932-10.227,0.037-14.142
		C344.558,330.855,338.226,330.84,334.31,334.734z"/>
	<path style="fill:#000001;" d="M312.048,256.002c0-30.904-25.143-56.045-56.047-56.045s-56.045,25.141-56.045,56.045
		c0,30.902,25.141,56.045,56.045,56.045S312.048,286.904,312.048,256.002z M219.956,256.002c0-19.875,16.17-36.045,36.045-36.045
		c19.876,0,36.047,16.17,36.047,36.045s-16.171,36.045-36.047,36.045C236.126,292.047,219.956,275.877,219.956,256.002z"/>
	<path style="fill:#000001;" d="M153.009,87.602c1.703,0,3.428-0.436,5.006-1.352l0.494-0.283c4.781-2.764,6.417-8.879,3.653-13.662
		c-2.764-4.779-8.88-6.418-13.662-3.652l-0.515,0.295c-4.779,2.77-6.406,8.889-3.637,13.668
		C146.203,85.814,149.56,87.602,153.009,87.602z"/>
	<path style="fill:#000001;" d="M366.107,308.033c-4.69-2.914-10.856-1.475-13.772,3.219c-0.153,0.246-0.319,0.535-0.462,0.813
		c-2.523,4.914-0.586,10.941,4.328,13.465c1.461,0.75,3.022,1.105,4.559,1.105c3.495,0,6.871-1.836,8.699-5.053
		C372.192,316.92,370.726,310.902,366.107,308.033z"/>
</g>
<g>
</g>
<g>
</g>
<g>
</g>
<g>
</g>
<g>
</g>
<g>
</g>
<g>
</g>
<g>
</g>
<g>
</g>
<g>
</g>
<g>
</g>
<g>
</g>
<g>
</g>
<g>
</g>
<g>
</g>
</svg>
